<svg width="24" height="24" viewBox="0 0 24 24" fill="none" xmlns="http://www.w3.org/2000/svg">
<path d="M15.874 13H21.9506C21.4489 18.0533 17.1854 22 12 22C6.81465 22 2.5511 18.0533 2.04938 13H8.12602C8.57006 14.7252 10.1362 16 12 16C13.8638 16 15.4299 14.7252 15.874 13Z" fill="#FF4F68"/>
<path d="M12 2C17.1854 2 21.4489 5.94668 21.9506 11H15.874C15.4299 9.27477 13.8638 8 12 8C10.1362 8 8.57006 9.27477 8.12602 11H2.04938C2.5511 5.94668 6.81465 2 12 2Z" fill="#FF4F68"/>
<path d="M12 14C13.1046 14 14 13.1046 14 12C14 10.8954 13.1046 10 12 10C10.8954 10 10 10.8954 10 12C10 13.1046 10.8954 14 12 14Z" fill="#FF4F68"/>
</svg>
