<svg xmlns="http://www.w3.org/2000/svg" width="24" height="24" fill="none"><g filter="url(#a)"><path fill="#FFD600" d="M15.943 12.094h6.129c-.506 5.097-4.806 9.078-10.036 9.078-5.23 0-9.53-3.98-10.036-9.078h6.129a4.036 4.036 0 0 0 7.814 0Z"/></g><path stroke="#000" stroke-width=".3" d="M15.943 12.094h6.129c-.506 5.097-4.806 9.078-10.036 9.078-5.23 0-9.53-3.98-10.036-9.078h6.129a4.036 4.036 0 0 0 7.814 0Z"/><g filter="url(#b)"><path fill="#FFD600" d="M12.036 1c5.23 0 9.53 3.98 10.036 9.077h-6.129a4.036 4.036 0 0 0-7.814 0H2C2.506 4.981 6.806 1 12.036 1Z"/></g><path stroke="#000" stroke-width=".3" d="M12.036 1c5.23 0 9.53 3.98 10.036 9.077h-6.129a4.036 4.036 0 0 0-7.814 0H2C2.506 4.981 6.806 1 12.036 1Z"/><g filter="url(#c)"><path fill="#FFD600" d="M12.036 13.103a2.017 2.017 0 1 0 0-4.034 2.017 2.017 0 0 0 0 4.034Z"/></g><path stroke="#000" stroke-width=".3" d="M12.036 13.103a2.017 2.017 0 1 0 0-4.034 2.017 2.017 0 0 0 0 4.034Z"/><g filter="url(#d)"><path fill="#FFD600" d="M11.81 16.585a.2.2 0 0 1 .38 0l.663 2.04a.2.2 0 0 0 .19.139h2.146a.2.2 0 0 1 .117.362l-1.735 1.26a.2.2 0 0 0-.073.224l.663 2.04a.2.2 0 0 1-.308.224l-1.735-1.26a.2.2 0 0 0-.236 0l-1.735 1.26a.2.2 0 0 1-.308-.223l.663-2.04a.2.2 0 0 0-.073-.224l-1.735-1.261a.2.2 0 0 1 .117-.362h2.146a.2.2 0 0 0 .19-.138l.663-2.04Z"/></g><path stroke="#000" stroke-width=".3" d="m12.996 18.58-.663-2.04a.35.35 0 0 0-.666 0l-.663 2.04a.05.05 0 0 1-.047.034H8.81a.35.35 0 0 0-.205.633l1.735 1.261a.05.05 0 0 1 .018.056l-.663 2.04a.35.35 0 0 0 .539.392l1.736-1.261a.05.05 0 0 1 .058 0l1.736 1.26a.35.35 0 0 0 .539-.39l-.663-2.041a.05.05 0 0 1 .018-.056l1.735-1.26a.35.35 0 0 0-.205-.634h-2.146a.05.05 0 0 1-.047-.035Z"/><g filter="url(#e)"><path fill="#FFD600" d="M17.405 19.293a.1.1 0 0 1 .19 0l.444 1.365a.1.1 0 0 0 .095.07h1.436a.1.1 0 0 1 .059.18l-1.162.844a.1.1 0 0 0-.036.112l.443 1.366a.1.1 0 0 1-.153.112l-1.162-.844a.1.1 0 0 0-.118 0l-1.162.844a.1.1 0 0 1-.153-.112l.443-1.366a.1.1 0 0 0-.036-.112l-1.162-.844a.1.1 0 0 1 .06-.18h1.435a.1.1 0 0 0 .095-.07l.444-1.365Z"/></g><path stroke="#000" stroke-width=".3" d="m18.17 20.578-.432-1.332a.25.25 0 0 0-.476 0l-.432 1.332h-1.4a.25.25 0 0 0-.147.452l1.133.822-.433 1.331a.25.25 0 0 0 .385.28l1.132-.823 1.132.823a.25.25 0 0 0 .385-.28l-.433-1.33 1.133-.823a.25.25 0 0 0-.147-.453h-1.4Z"/><g filter="url(#f)"><path fill="#FFD600" d="M6.405 19.293a.1.1 0 0 1 .19 0l.444 1.365a.1.1 0 0 0 .095.07H8.57a.1.1 0 0 1 .059.18l-1.162.844a.1.1 0 0 0-.036.112l.443 1.366a.1.1 0 0 1-.154.112l-1.161-.844a.1.1 0 0 0-.118 0l-1.161.844a.1.1 0 0 1-.154-.112l.443-1.366a.1.1 0 0 0-.036-.112l-1.162-.844a.1.1 0 0 1 .06-.18h1.435a.1.1 0 0 0 .095-.07l.444-1.365Z"/></g><path stroke="#000" stroke-width=".3" d="m7.17 20.578-.432-1.332a.25.25 0 0 0-.476 0l-.432 1.332h-1.4a.25.25 0 0 0-.147.452l1.132.822-.432 1.331a.25.25 0 0 0 .385.28L6.5 22.64l1.132.823a.25.25 0 0 0 .385-.28l-.432-1.33 1.132-.823a.25.25 0 0 0-.147-.453h-1.4Z"/><defs><filter id="a" width="20.403" height="9.377" x="1.834" y="11.944" color-interpolation-filters="sRGB" filterUnits="userSpaceOnUse"><feFlood flood-opacity="0" result="BackgroundImageFix"/><feBlend in="SourceGraphic" in2="BackgroundImageFix" result="shape"/><feColorMatrix in="SourceAlpha" result="hardAlpha" values="0 0 0 0 0 0 0 0 0 0 0 0 0 0 0 0 0 0 127 0"/><feOffset dy="1.5"/><feComposite in2="hardAlpha" k2="-1" k3="1" operator="arithmetic"/><feColorMatrix values="0 0 0 0 1 0 0 0 0 0.72 0 0 0 0 0 0 0 0 1 0"/><feBlend in2="shape" result="effect1_innerShadow_6_9"/></filter><filter id="b" width="20.403" height="9.377" x="1.834" y=".85" color-interpolation-filters="sRGB" filterUnits="userSpaceOnUse"><feFlood flood-opacity="0" result="BackgroundImageFix"/><feBlend in="SourceGraphic" in2="BackgroundImageFix" result="shape"/><feColorMatrix in="SourceAlpha" result="hardAlpha" values="0 0 0 0 0 0 0 0 0 0 0 0 0 0 0 0 0 0 127 0"/><feOffset dy="-1.5"/><feComposite in2="hardAlpha" k2="-1" k3="1" operator="arithmetic"/><feColorMatrix values="0 0 0 0 1 0 0 0 0 0.72 0 0 0 0 0 0 0 0 1 0"/><feBlend in2="shape" result="effect1_innerShadow_6_9"/></filter><filter id="c" width="4.334" height="4.334" x="9.869" y="8.919" color-interpolation-filters="sRGB" filterUnits="userSpaceOnUse"><feFlood flood-opacity="0" result="BackgroundImageFix"/><feBlend in="SourceGraphic" in2="BackgroundImageFix" result="shape"/><feColorMatrix in="SourceAlpha" result="hardAlpha" values="0 0 0 0 0 0 0 0 0 0 0 0 0 0 0 0 0 0 127 0"/><feOffset dy="1"/><feComposite in2="hardAlpha" k2="-1" k3="1" operator="arithmetic"/><feColorMatrix values="0 0 0 0 1 0 0 0 0 0.72 0 0 0 0 0 0 0 0 1 0"/><feBlend in2="shape" result="effect1_innerShadow_6_9"/></filter><filter id="d" width="7.379" height="7.068" x="8.31" y="16.147" color-interpolation-filters="sRGB" filterUnits="userSpaceOnUse"><feFlood flood-opacity="0" result="BackgroundImageFix"/><feBlend in="SourceGraphic" in2="BackgroundImageFix" result="shape"/><feColorMatrix in="SourceAlpha" result="hardAlpha" values="0 0 0 0 0 0 0 0 0 0 0 0 0 0 0 0 0 0 127 0"/><feOffset dy="1.3"/><feComposite in2="hardAlpha" k2="-1" k3="1" operator="arithmetic"/><feColorMatrix values="0 0 0 0 1 0 0 0 0 0.72 0 0 0 0 0 0 0 0 1 0"/><feBlend in2="shape" result="effect1_innerShadow_6_9"/></filter><filter id="e" width="4.941" height="4.739" x="15.029" y="18.924" color-interpolation-filters="sRGB" filterUnits="userSpaceOnUse"><feFlood flood-opacity="0" result="BackgroundImageFix"/><feBlend in="SourceGraphic" in2="BackgroundImageFix" result="shape"/><feColorMatrix in="SourceAlpha" result="hardAlpha" values="0 0 0 0 0 0 0 0 0 0 0 0 0 0 0 0 0 0 127 0"/><feOffset dy="1.3"/><feComposite in2="hardAlpha" k2="-1" k3="1" operator="arithmetic"/><feColorMatrix values="0 0 0 0 1 0 0 0 0 0.72 0 0 0 0 0 0 0 0 1 0"/><feBlend in2="shape" result="effect1_innerShadow_6_9"/></filter><filter id="f" width="4.941" height="4.739" x="4.029" y="18.924" color-interpolation-filters="sRGB" filterUnits="userSpaceOnUse"><feFlood flood-opacity="0" result="BackgroundImageFix"/><feBlend in="SourceGraphic" in2="BackgroundImageFix" result="shape"/><feColorMatrix in="SourceAlpha" result="hardAlpha" values="0 0 0 0 0 0 0 0 0 0 0 0 0 0 0 0 0 0 127 0"/><feOffset dy="1.3"/><feComposite in2="hardAlpha" k2="-1" k3="1" operator="arithmetic"/><feColorMatrix values="0 0 0 0 1 0 0 0 0 0.72 0 0 0 0 0 0 0 0 1 0"/><feBlend in2="shape" result="effect1_innerShadow_6_9"/></filter></defs></svg>