<svg xmlns="http://www.w3.org/2000/svg" width="24" height="24" fill="none"><path fill="#FF4F68" d="M10.55 19.7 12 21l1.45-1.3c1.683-1.517 3.075-2.825 4.175-3.925 1.1-1.1 1.975-2.088 2.625-2.963.65-.875 1.104-1.679 1.363-2.412A6.733 6.733 0 0 0 22 8.15c0-1.567-.525-2.875-1.575-3.925-1.05-1.05-2.358-1.575-3.925-1.575-.867 0-1.692.183-2.475.55A5.93 5.93 0 0 0 12 4.75 5.93 5.93 0 0 0 9.975 3.2 5.769 5.769 0 0 0 7.5 2.65c-1.567 0-2.875.525-3.925 1.575C2.525 5.275 2 6.583 2 8.15c0 .767.13 1.517.388 2.25.258.733.712 1.537 1.362 2.412.65.875 1.525 1.863 2.625 2.963s2.492 2.408 4.175 3.925Z"/></svg>