<svg width="3" height="16" viewBox="0 0 3 16" fill="none" xmlns="http://www.w3.org/2000/svg">
<path fill-rule="evenodd" clip-rule="evenodd" d="M2.99998 2C2.99998 2.82843 2.32841 3.5 1.49998 3.5C0.671558 3.5 -1.52588e-05 2.82843 -1.52588e-05 2C-1.52588e-05 1.17157 0.671558 0.5 1.49998 0.5C2.32841 0.5 2.99998 1.17157 2.99998 2ZM2.99998 8C2.99998 8.82843 2.32841 9.5 1.49998 9.5C0.671558 9.5 -1.52588e-05 8.82843 -1.52588e-05 8C-1.52588e-05 7.17157 0.671558 6.5 1.49998 6.5C2.32841 6.5 2.99998 7.17157 2.99998 8ZM1.49998 15.5C2.32841 15.5 2.99998 14.8284 2.99998 14C2.99998 13.1716 2.32841 12.5 1.49998 12.5C0.671558 12.5 -1.52588e-05 13.1716 -1.52588e-05 14C-1.52588e-05 14.8284 0.671558 15.5 1.49998 15.5Z" fill="#0E0940"/>
</svg>
